HIERARCHY
ROOT hip
{
  OFFSET 0 90.174 2.4664
  CHANNELS 6 Xposition Yposition Zposition Zrotation Xrotation Yrotation
  JOINT abdomen
  {
    OFFSET 0 -1.186 -1.5018
    CHANNELS 6 Xposition Yposition Zposition Zrotation Xrotation Yrotation
    JOINT abdomen2
    {
      OFFSET 0 9.964 0.2134
      CHANNELS 6 Xposition Yposition Zposition Zrotation Xrotation Yrotation
      JOINT chest
      {
        OFFSET 0 13.134 -3.2573
        CHANNELS 6 Xposition Yposition Zposition Zrotation Xrotation Yrotation
        JOINT neck
        {
          OFFSET 0 20.686 -1.6905
          CHANNELS 6 Xposition Yposition Zposition Zrotation Xrotation Yrotation
          JOINT head
          {
            OFFSET 0 7.238 -0.1237
            CHANNELS 6 Xposition Yposition Zposition Zrotation Xrotation Yrotation
            End Site
            {
              OFFSET 0 0 0
            }
          }
        }
        JOINT lCollar
        {
          OFFSET 1.7069 20.075 5.0056
          CHANNELS 6 Xposition Yposition Zposition Zrotation Xrotation Yrotation
          JOINT lShldr
          {
            OFFSET 13.6458 -0.047 -4.849
            CHANNELS 6 Xposition Yposition Zposition Zrotation Xrotation Yrotation
            JOINT lForeArm
            {
              OFFSET 28.3255 -0.9759 2.2888
              CHANNELS 6 Xposition Yposition Zposition Zrotation Xrotation Yrotation
              JOINT lHand
              {
                OFFSET 22.1583 -0.53 10.8316
                CHANNELS 6 Xposition Yposition Zposition Zrotation Xrotation Yrotation
                JOINT lThumb1
                {
                  OFFSET 0.786 0.112 2.5817
                  CHANNELS 6 Xposition Yposition Zposition Zrotation Xrotation Yrotation
                  JOINT lThumb2
                  {
                    OFFSET 0.3601 -0.878 4.2331
                    CHANNELS 6 Xposition Yposition Zposition Zrotation Xrotation Yrotation
                    JOINT lThumb2_End
                    {
                      OFFSET 1.8127 -1.216 2.2227
                      CHANNELS 6 Xposition Yposition Zposition Zrotation Xrotation Yrotation
                      End Site
                      {
                        OFFSET 0.0181 -0.0122 0.0222
                      }
                    }
                  }
                }
                JOINT lCarpal1
                {
                  OFFSET 0.9571 1.114 1.7695
                  CHANNELS 6 Xposition Yposition Zposition Zrotation Xrotation Yrotation
                  JOINT lIndex1
                  {
                    OFFSET 4.1246 0.487 4.1451
                    CHANNELS 6 Xposition Yposition Zposition Zrotation Xrotation Yrotation
                    JOINT lIndex2
                    {
                      OFFSET 3.4052 -1.454 2.7682
                      CHANNELS 6 Xposition Yposition Zposition Zrotation Xrotation Yrotation
                      JOINT lIndex2_End
                      {
                        OFFSET 1.4531 -1.795 1.2713
                        CHANNELS 6 Xposition Yposition Zposition Zrotation Xrotation Yrotation
                        End Site
                        {
                          OFFSET 0.0145 -0.0179 0.0127
                        }
                      }
                    }
                  }
                  JOINT lMid1
                  {
                    OFFSET 5.6954 0.21 2.1184
                    CHANNELS 6 Xposition Yposition Zposition Zrotation Xrotation Yrotation
                    JOINT lMid2
                    {
                      OFFSET 3.9766 -1.54 2.3863
                      CHANNELS 6 Xposition Yposition Zposition Zrotation Xrotation Yrotation
                      JOINT lMid2_End
                      {
                        OFFSET 1.4042 -1.926 1.125
                        CHANNELS 6 Xposition Yposition Zposition Zrotation Xrotation Yrotation
                        End Site
                        {
                          OFFSET 0.014 -0.0193 0.0113
                        }
                      }
                    }
                  }
                }
                JOINT lCarpal2
                {
                  OFFSET 2.0956 0.66 -0.3894
                  CHANNELS 6 Xposition Yposition Zposition Zrotation Xrotation Yrotation
                  JOINT lRing1
                  {
                    OFFSET 5.0395 -0.09 2.4971
                    CHANNELS 6 Xposition Yposition Zposition Zrotation Xrotation Yrotation
                    JOINT lRing2
                    {
                      OFFSET 3.7921 -1.552 1.4806
                      CHANNELS 6 Xposition Yposition Zposition Zrotation Xrotation Yrotation
                      JOINT lRing2_End
                      {
                        OFFSET 1.4655 -1.808 0.9609
                        CHANNELS 6 Xposition Yposition Zposition Zrotation Xrotation Yrotation
                        End Site
                        {
                          OFFSET 0.0147 -0.0181 0.0096
                        }
                      }
                    }
                  }
                  JOINT lPinky1
                  {
                    OFFSET 4.9141 -1.269 0.3591
                    CHANNELS 6 Xposition Yposition Zposition Zrotation Xrotation Yrotation
                    JOINT lPinky2
                    {
                      OFFSET 3.1477 -1.685 0.8462
                      CHANNELS 6 Xposition Yposition Zposition Zrotation Xrotation Yrotation
                      JOINT lPinky2_End
                      {
                        OFFSET 0.8055 -1.585 0.7955
                        CHANNELS 6 Xposition Yposition Zposition Zrotation Xrotation Yrotation
                        End Site
                        {
                          OFFSET 0.0081 -0.0158 0.008
                        }
                      }
                    }
                  }
                }
              }
            }
          }
        }
        JOINT rCollar
        {
          OFFSET -1.7069 20.075 5.0056
          CHANNELS 6 Xposition Yposition Zposition Zrotation Xrotation Yrotation
          JOINT rShldr
          {
            OFFSET -13.6458 -0.047 -4.849
            CHANNELS 6 Xposition Yposition Zposition Zrotation Xrotation Yrotation
            JOINT rForeArm
            {
              OFFSET -28.3255 -0.9759 2.2888
              CHANNELS 6 Xposition Yposition Zposition Zrotation Xrotation Yrotation
              JOINT rHand
              {
                OFFSET -22.1583 -0.53 10.8316
                CHANNELS 6 Xposition Yposition Zposition Zrotation Xrotation Yrotation
                JOINT rThumb1
                {
                  OFFSET -0.786 0.112 2.5817
                  CHANNELS 6 Xposition Yposition Zposition Zrotation Xrotation Yrotation
                  JOINT rThumb2
                  {
                    OFFSET -0.3601 -0.878 4.2331
                    CHANNELS 6 Xposition Yposition Zposition Zrotation Xrotation Yrotation
                    JOINT rThumb2_End
                    {
                      OFFSET -1.8127 -1.216 2.2227
                      CHANNELS 6 Xposition Yposition Zposition Zrotation Xrotation Yrotation
                      End Site
                      {
                        OFFSET -0.0181 -0.0122 0.0222
                      }
                    }
                  }
                }
                JOINT rCarpal1
                {
                  OFFSET -0.9571 1.114 1.7695
                  CHANNELS 6 Xposition Yposition Zposition Zrotation Xrotation Yrotation
                  JOINT rIndex1
                  {
                    OFFSET -4.1246 0.487 4.1451
                    CHANNELS 6 Xposition Yposition Zposition Zrotation Xrotation Yrotation
                    JOINT rIndex2
                    {
                      OFFSET -3.4052 -1.454 2.7682
                      CHANNELS 6 Xposition Yposition Zposition Zrotation Xrotation Yrotation
                      JOINT rIndex2_End
                      {
                        OFFSET -1.4531 -1.795 1.2713
                        CHANNELS 6 Xposition Yposition Zposition Zrotation Xrotation Yrotation
                        End Site
                        {
                          OFFSET -0.0145 -0.018 0.0127
                        }
                      }
                    }
                  }
                  JOINT rMid1
                  {
                    OFFSET -5.6954 0.21 2.1184
                    CHANNELS 6 Xposition Yposition Zposition Zrotation Xrotation Yrotation
                    JOINT rMid2
                    {
                      OFFSET -3.9766 -1.54 2.3863
                      CHANNELS 6 Xposition Yposition Zposition Zrotation Xrotation Yrotation
                      JOINT rMid2_End
                      {
                        OFFSET -1.4042 -1.926 1.125
                        CHANNELS 6 Xposition Yposition Zposition Zrotation Xrotation Yrotation
                        End Site
                        {
                          OFFSET -0.014 -0.0193 0.0113
                        }
                      }
                    }
                  }
                }
                JOINT rCarpal2
                {
                  OFFSET -2.0956 0.66 -0.3894
                  CHANNELS 6 Xposition Yposition Zposition Zrotation Xrotation Yrotation
                  JOINT rRing1
                  {
                    OFFSET -5.0395 -0.09 2.4971
                    CHANNELS 6 Xposition Yposition Zposition Zrotation Xrotation Yrotation
                    JOINT rRing2
                    {
                      OFFSET -3.7921 -1.552 1.4806
                      CHANNELS 6 Xposition Yposition Zposition Zrotation Xrotation Yrotation
                      JOINT rRing2_End
                      {
                        OFFSET -1.4655 -1.808 0.9609
                        CHANNELS 6 Xposition Yposition Zposition Zrotation Xrotation Yrotation
                        End Site
                        {
                          OFFSET -0.0147 -0.0181 0.0096
                        }
                      }
                    }
                  }
                  JOINT rPinky1
                  {
                    OFFSET -4.9141 -1.269 0.3592
                    CHANNELS 6 Xposition Yposition Zposition Zrotation Xrotation Yrotation
                    JOINT rPinky2
                    {
                      OFFSET -3.1477 -1.685 0.8462
                      CHANNELS 6 Xposition Yposition Zposition Zrotation Xrotation Yrotation
                      JOINT rPinky2_End
                      {
                        OFFSET -0.8055 -1.585 0.7955
                        CHANNELS 6 Xposition Yposition Zposition Zrotation Xrotation Yrotation
                        End Site
                        {
                          OFFSET -0.0081 -0.0158 0.008
                        }
                      }
                    }
                  }
                }
              }
            }
          }
        }
      }
    }
  }
  JOINT lThigh
  {
    OFFSET 8.367 -8.2066 0.5982
    CHANNELS 6 Xposition Yposition Zposition Zrotation Xrotation Yrotation
    JOINT lShin
    {
      OFFSET 2.1923 -43.463 -0.4932
      CHANNELS 6 Xposition Yposition Zposition Zrotation Xrotation Yrotation
      JOINT lFoot
      {
        OFFSET 0.7333 -45.8593 -2.6451
        CHANNELS 6 Xposition Yposition Zposition Zrotation Xrotation Yrotation
        End Site
        {
          OFFSET 2.6618 -4.2699 12.3931
        }
      }
    }
  }
  JOINT rThigh
  {
    OFFSET -8.367 -8.2066 0.5982
    CHANNELS 6 Xposition Yposition Zposition Zrotation Xrotation Yrotation
    JOINT rShin
    {
      OFFSET -2.1923 -43.463 -0.4931
      CHANNELS 6 Xposition Yposition Zposition Zrotation Xrotation Yrotation
      JOINT rFoot
      {
        OFFSET -0.7333 -45.8593 -2.6451
        CHANNELS 6 Xposition Yposition Zposition Zrotation Xrotation Yrotation
        End Site
        {
          OFFSET -2.6618 -4.2699 12.3931
        }
      }
    }
  }
}
MOTION
Frames:	4
Frame Time:	0.0333333
0 90.174 2.4664 0 0 -0 0 -1.186 -1.5018 0 0 -0 0 9.964 0.2134 0 0 -0 0 13.134 -3.2573 0 0 -0 0 20.686 -1.6905 0 0 -0 0 7.238 -0.1237 0 0 -0 1.7069 20.075 5.0056 0 0 -0 13.6458 -0.047 -4.849 1.66051 0.0835086 5.75766 28.3255 -0.9759 2.2888 -0.0175111 0.895433 15.7816 22.1583 -0.53 10.8316 7.95139e-016 -1.98785e-016 -0 0.786 0.112 2.5817 5.46658e-016 -3.97569e-016 -0 0.3601 -0.878 4.2331 5.96354e-016 0 -0 1.8127 -1.216 2.2227 3.97569e-016 1.98785e-016 9.54166e-015 0.9571 1.114 1.7695 1.49089e-016 -3.97569e-016 -0 4.1246 0.487 4.1451 6.4605e-016 0 3.18055e-015 3.4052 -1.454 2.7682 5.96354e-016 0 3.18055e-015 1.4531 -1.795 1.2713 8.94531e-016 -1.98785e-016 6.36111e-015 5.6954 0.21 2.1184 6.4605e-016 0 3.18055e-015 3.9766 -1.54 2.3863 5.96354e-016 0 3.18055e-015 1.4042 -1.926 1.125 8.94531e-016 -1.98785e-016 6.36111e-015 2.0956 0.66 -0.3894 1.49089e-016 -3.97569e-016 -0 5.0395 -0.09 2.4971 6.4605e-016 0 3.18055e-015 3.7921 -1.552 1.4806 5.96354e-016 0 3.18055e-015 1.4655 -1.808 0.9609 8.94531e-016 -1.98785e-016 6.36111e-015 4.9141 -1.269 0.3591 6.4605e-016 0 3.18055e-015 3.1477 -1.685 0.8462 5.96354e-016 0 3.18055e-015 0.8055 -1.585 0.7955 8.94531e-016 -1.98785e-016 6.36111e-015 -1.7069 20.075 5.0056 0 0 -0 -13.6458 -0.047 -4.849 -1.4496 0.0636048 -5.0245 -28.3255 -0.9759 2.2888 -1.74811 1.20616 -16.8394 -22.1583 -0.53 10.8316 -1.19271e-015 1.98785e-016 -3.18055e-015 -0.786 0.112 2.5817 -3.97569e-016 1.98785e-016 -3.18055e-015 -0.3601 -0.878 4.2331 -2.98177e-016 1.98785e-016 -3.18055e-015 -1.8127 -1.216 2.2227 -2.98177e-016 3.97569e-016 -0 -0.9571 1.114 1.7695 4.96962e-016 0 -6.36111e-015 -4.1246 0.487 4.1451 -9.93923e-017 3.97569e-016 -0 -3.4052 -1.454 2.7682 -8.94531e-016 5.96354e-016 -0 -1.4531 -1.795 1.2713 -3.97569e-016 3.97569e-016 -0 -5.6954 0.21 2.1184 -9.93923e-017 3.97569e-016 -0 -3.9766 -1.54 2.3863 -8.94531e-016 5.96354e-016 -0 -1.4042 -1.926 1.125 -3.97569e-016 3.97569e-016 -0 -2.0956 0.66 -0.3894 4.96962e-016 0 -6.36111e-015 -5.0395 -0.09 2.4971 -9.93923e-017 3.97569e-016 -0 -3.7921 -1.552 1.4806 -8.94531e-016 5.96354e-016 -0 -1.4655 -1.808 0.9609 -3.97569e-016 3.97569e-016 -0 -4.9141 -1.269 0.3592 -9.93923e-017 3.97569e-016 -0 -3.1477 -1.685 0.8462 -8.94531e-016 5.96354e-016 -0 -0.8055 -1.585 0.7955 -3.97569e-016 3.97569e-016 -0 8.367 -8.2066 0.5982 -4.66115 -1.03232 0.120763 2.1923 -43.463 -0.4932 0.00990601 1.55097 0.177175 0.7333 -45.8593 -2.6451 4.65196 -0.54114 -0.255042 -8.367 -8.2066 0.5982 4.66115 -1.03222 -0.120763 -2.1923 -43.463 -0.4931 -0.00990459 1.5509 -0.177176 -0.7333 -45.8593 -2.6451 -4.65196 -0.541171 0.255041 
-7.59416 35.3064 -8.5775 84.9956 1.22124e-006 -9.46633e-007 0 -1.186 -1.5018 -1.92279 3.23757 -0.605058 7.10543e-015 9.964 0.2134 -3.82042 6.4935 -1.10343 -7.10543e-015 13.134 -3.2573 -3.82042 6.4935 -1.10343 3.55271e-015 20.686 -1.6905 36.3265 23.1849 -13.1433 7.10543e-015 7.238 -0.1237 -0.212895 -1.4508 30.9918 1.7069 20.075 5.0056 -20.9883 -0.720511 1.8637 13.6458 -0.047 -4.849 -50.9581 13.1561 -37.1481 28.3255 -0.9759 2.2888 14.5443 -7.93868 -89.3201 22.1583 -0.53 10.8316 5.78227 -5.12051 -30.7375 0.786 0.112 2.5817 -4.96962e-016 5.96354e-016 -6.36111e-015 0.3601 -0.878 4.2331 -7.95139e-016 0 3.18055e-015 1.8127 -1.216 2.2227 -7.95139e-016 -1.98785e-016 -0 0.9571 1.114 1.7695 -4.96962e-016 5.96354e-016 -6.36111e-015 4.1246 0.487 4.1451 -5.96354e-016 0 9.54166e-015 3.4052 -1.454 2.7682 -9.93923e-016 1.98785e-016 3.18055e-015 1.4531 -1.795 1.2713 -8.94531e-016 1.98785e-016 -0 5.6954 0.21 2.1184 -5.96354e-016 0 9.54166e-015 3.9766 -1.54 2.3863 -9.93923e-016 1.98785e-016 3.18055e-015 1.4042 -1.926 1.125 -8.94531e-016 1.98785e-016 -0 2.0956 0.66 -0.3894 -4.96962e-016 5.96354e-016 -6.36111e-015 5.0395 -0.09 2.4971 -5.96354e-016 0 9.54166e-015 3.7921 -1.552 1.4806 -9.93923e-016 1.98785e-016 3.18055e-015 1.4655 -1.808 0.9609 -8.94531e-016 1.98785e-016 -0 4.9141 -1.269 0.3591 -5.96354e-016 0 9.54166e-015 3.1477 -1.685 0.8462 -9.93923e-016 1.98785e-016 3.18055e-015 0.8055 -1.585 0.7955 -8.94531e-016 1.98785e-016 -0 -1.7069 20.075 5.0056 22.5851 4.46763 11.0648 -13.6458 -0.047 -4.849 66.5441 -3.93645 -5.12519 -28.3255 -0.9759 2.2888 -0.973839 -3.99646 -12.0943 -22.1583 -0.53 10.8316 7.2872 -0.966587 12.0445 -0.786 0.112 2.5817 8.94531e-016 -3.97569e-016 6.36111e-015 -0.3601 -0.878 4.2331 1.78906e-015 -1.19271e-015 3.18055e-015 -1.8127 -1.216 2.2227 -4.96962e-016 -1.19271e-015 3.18055e-015 -0.9571 1.114 1.7695 -7.95139e-016 -3.97569e-016 3.18055e-015 -4.1246 0.487 4.1451 2.68359e-015 -1.59028e-015 1.27222e-014 -3.4052 -1.454 2.7682 1.59028e-015 0 6.36111e-015 -1.4531 -1.795 1.2713 1.68967e-015 0 9.54166e-015 -5.6954 0.21 2.1184 2.68359e-015 -1.59028e-015 1.27222e-014 -3.9766 -1.54 2.3863 1.59028e-015 0 6.36111e-015 -1.4042 -1.926 1.125 1.68967e-015 0 9.54166e-015 -2.0956 0.66 -0.3894 -7.95139e-016 -3.97569e-016 3.18055e-015 -5.0395 -0.09 2.4971 2.68359e-015 -1.59028e-015 1.27222e-014 -3.7921 -1.552 1.4806 1.59028e-015 0 6.36111e-015 -1.4655 -1.808 0.9609 1.68967e-015 0 9.54166e-015 -4.9141 -1.269 0.3592 2.68359e-015 -1.59028e-015 1.27222e-014 -3.1477 -1.685 0.8462 1.59028e-015 0 6.36111e-015 -0.8055 -1.585 0.7955 1.68967e-015 0 9.54166e-015 8.367 -8.2066 0.5982 0.29737 -33.8466 13.5731 2.1923 -43.463 -0.4932 3.20856 76.8426 -8.3107 0.7333 -45.8593 -2.6451 1.19429 44.6764 0.559228 -8.367 -8.2066 0.5982 5.98036 -5.09091 4.73622 -2.1923 -43.463 -0.4931 0.480793 16.4168 -1.03287 -0.7333 -45.8593 -2.6451 -2.64105 19.0635 1.10369 
-7.59416 35.3064 -8.5775 84.9956 1.22124e-006 -9.46633e-007 0 -1.186 -1.5018 -1.92279 3.23757 -0.605058 7.10543e-015 9.964 0.2134 -3.82042 6.4935 -1.10343 0 13.134 -3.2573 -3.82042 6.4935 -1.10343 7.10543e-015 20.686 -1.6905 36.3267 23.1849 -13.1434 0 7.238 -0.1237 -0.212906 -1.4508 30.9918 1.7069 20.075 5.0056 -20.9883 -0.720511 1.8637 13.6458 -0.047 -4.849 -50.9581 13.1561 -37.1481 28.3255 -0.9759 2.2888 14.5443 -7.93868 -89.3201 22.1583 -0.53 10.8316 5.78228 -5.12051 -30.7375 0.786 0.112 2.5817 -3.89097e-007 1.83145e-007 3.32895e-009 0.3601 -0.878 4.2331 3.89097e-007 -1.83145e-007 -3.32894e-009 1.8127 -1.216 2.2227 -3.89097e-007 1.83145e-007 3.32895e-009 0.9571 1.114 1.7695 2.98177e-016 1.98785e-016 -6.36111e-015 4.1246 0.487 4.1451 -3.89097e-007 1.83145e-007 3.32895e-009 3.4052 -1.454 2.7682 3.89097e-007 -1.83145e-007 -3.32894e-009 1.4531 -1.795 1.2713 -3.89097e-007 1.83145e-007 3.32895e-009 5.6954 0.21 2.1184 -3.89097e-007 1.83145e-007 3.32895e-009 3.9766 -1.54 2.3863 3.89097e-007 -1.83145e-007 -3.32894e-009 1.4042 -1.926 1.125 -3.89097e-007 1.83145e-007 3.32895e-009 2.0956 0.66 -0.3894 2.98177e-016 1.98785e-016 -6.36111e-015 5.0395 -0.09 2.4971 -3.89097e-007 1.83145e-007 3.32895e-009 3.7921 -1.552 1.4806 3.89097e-007 -1.83145e-007 -3.32894e-009 1.4655 -1.808 0.9609 -3.89097e-007 1.83145e-007 3.32895e-009 4.9141 -1.269 0.3591 -3.89097e-007 1.83145e-007 3.32895e-009 3.1477 -1.685 0.8462 3.89097e-007 -1.83145e-007 -3.32894e-009 0.8055 -1.585 0.7955 -3.89097e-007 1.83145e-007 3.32895e-009 -1.7069 20.075 5.0056 22.5851 4.46763 11.0648 -13.6458 -0.047 -4.849 66.5441 -3.93645 -5.12519 -28.3255 -0.9759 2.2888 -0.973842 -3.99646 -12.0943 -22.1583 -0.53 10.8316 7.2872 -0.966587 12.0445 -0.786 0.112 2.5817 6.95746e-016 -1.19271e-015 -3.18055e-015 -0.3601 -0.878 4.2331 -1.78906e-015 7.95139e-016 -6.36111e-015 -1.8127 -1.216 2.2227 8.94531e-016 -3.97569e-016 -3.18055e-015 -0.9571 1.114 1.7695 7.95139e-016 -7.95139e-016 -0 -4.1246 0.487 4.1451 4.96962e-016 3.97569e-016 3.18055e-015 -3.4052 -1.454 2.7682 -9.93923e-017 -3.97569e-016 -3.18055e-015 -1.4531 -1.795 1.2713 4.17448e-015 0 -3.18055e-015 -5.6954 0.21 2.1184 4.96962e-016 3.97569e-016 3.18055e-015 -3.9766 -1.54 2.3863 -9.93923e-017 -3.97569e-016 -3.18055e-015 -1.4042 -1.926 1.125 4.17448e-015 0 -3.18055e-015 -2.0956 0.66 -0.3894 7.95139e-016 -7.95139e-016 -0 -5.0395 -0.09 2.4971 4.96962e-016 3.97569e-016 3.18055e-015 -3.7921 -1.552 1.4806 -9.93923e-017 -3.97569e-016 -3.18055e-015 -1.4655 -1.808 0.9609 4.17448e-015 0 -3.18055e-015 -4.9141 -1.269 0.3592 4.96962e-016 3.97569e-016 3.18055e-015 -3.1477 -1.685 0.8462 -9.93923e-017 -3.97569e-016 -3.18055e-015 -0.8055 -1.585 0.7955 4.17448e-015 0 -3.18055e-015 8.367 -8.2066 0.5982 0.297353 -33.8467 13.5731 2.1923 -43.463 -0.4932 3.2087 76.8426 -8.31083 0.7333 -45.8593 -2.6451 1.19426 44.6764 0.55923 -8.367 -8.2066 0.5982 5.98038 -5.09097 4.73622 -2.1923 -43.463 -0.4931 0.480781 16.417 -1.03288 -0.7333 -45.8593 -2.6451 -2.64105 19.0634 1.1037 
-7.59416 35.3064 -8.5775 84.9956 1.22124e-006 -9.46633e-007 0 -1.186 -1.5018 -1.92279 3.23757 -0.605058 7.10543e-015 9.964 0.2134 -3.82042 6.4935 -1.10343 -7.10543e-015 13.134 -3.2573 -3.82042 6.4935 -1.10343 3.55271e-015 20.686 -1.6905 36.3265 23.1849 -13.1433 7.10543e-015 7.238 -0.1237 -0.212895 -1.4508 30.9918 1.7069 20.075 5.0056 -20.9883 -0.720511 1.8637 13.6458 -0.047 -4.849 -50.9581 13.1561 -37.1481 28.3255 -0.9759 2.2888 14.5443 -7.93868 -89.3201 22.1583 -0.53 10.8316 5.78228 -5.12051 -30.7375 0.786 0.112 2.5817 3.03772e-007 2.34921e-007 -1.11934e-006 0.3601 -0.878 4.2331 -2.37553e-007 -3.20952e-008 1.12516e-006 1.8127 -1.216 2.2227 3.03772e-007 2.34921e-007 -1.11934e-006 0.9571 1.114 1.7695 2.98177e-016 -7.95139e-016 3.18055e-015 4.1246 0.487 4.1451 3.03772e-007 2.34921e-007 -1.11934e-006 3.4052 -1.454 2.7682 -2.37553e-007 -3.20952e-008 1.12516e-006 1.4531 -1.795 1.2713 3.03772e-007 2.34921e-007 -1.11934e-006 5.6954 0.21 2.1184 3.03772e-007 2.34921e-007 -1.11934e-006 3.9766 -1.54 2.3863 -2.37553e-007 -3.20952e-008 1.12516e-006 1.4042 -1.926 1.125 3.03772e-007 2.34921e-007 -1.11934e-006 2.0956 0.66 -0.3894 2.98177e-016 -7.95139e-016 3.18055e-015 5.0395 -0.09 2.4971 3.03772e-007 2.34921e-007 -1.11934e-006 3.7921 -1.552 1.4806 -2.37553e-007 -3.20952e-008 1.12516e-006 1.4655 -1.808 0.9609 3.03772e-007 2.34921e-007 -1.11934e-006 4.9141 -1.269 0.3591 3.03772e-007 2.34921e-007 -1.11934e-006 3.1477 -1.685 0.8462 -2.37553e-007 -3.20952e-008 1.12516e-006 0.8055 -1.585 0.7955 3.03772e-007 2.34921e-007 -1.11934e-006 -1.7069 20.075 5.0056 22.5851 4.46763 11.0648 -13.6458 -0.047 -4.849 66.5441 -3.93645 -5.12519 -28.3255 -0.9759 2.2888 -0.973839 -3.99646 -12.0943 -22.1583 -0.53 10.8316 7.2872 -0.966588 12.0445 -0.786 0.112 2.5817 -1.78906e-015 -3.97569e-016 -3.18055e-015 -0.3601 -0.878 4.2331 -1.98785e-016 0 -3.18055e-015 -1.8127 -1.216 2.2227 -4.96962e-016 -1.98785e-015 3.18055e-015 -0.9571 1.114 1.7695 -1.98785e-016 3.97569e-016 -3.18055e-015 -4.1246 0.487 4.1451 -1.39149e-015 2.38542e-015 3.18055e-015 -3.4052 -1.454 2.7682 -2.98177e-015 -3.97569e-016 -3.18055e-015 -1.4531 -1.795 1.2713 -2.98177e-016 -1.19271e-015 -3.18055e-015 -5.6954 0.21 2.1184 -1.39149e-015 2.38542e-015 3.18055e-015 -3.9766 -1.54 2.3863 -2.98177e-015 -3.97569e-016 -3.18055e-015 -1.4042 -1.926 1.125 -2.98177e-016 -1.19271e-015 -3.18055e-015 -2.0956 0.66 -0.3894 -1.98785e-016 3.97569e-016 -3.18055e-015 -5.0395 -0.09 2.4971 -1.39149e-015 2.38542e-015 3.18055e-015 -3.7921 -1.552 1.4806 -2.98177e-015 -3.97569e-016 -3.18055e-015 -1.4655 -1.808 0.9609 -2.98177e-016 -1.19271e-015 -3.18055e-015 -4.9141 -1.269 0.3592 -1.39149e-015 2.38542e-015 3.18055e-015 -3.1477 -1.685 0.8462 -2.98177e-015 -3.97569e-016 -3.18055e-015 -0.8055 -1.585 0.7955 -2.98177e-016 -1.19271e-015 -3.18055e-015 8.367 -8.2066 0.5982 0.297363 -33.8466 13.5731 2.1923 -43.463 -0.4932 3.20856 76.8426 -8.3107 0.7333 -45.8593 -2.6451 1.19427 44.6763 0.559224 -8.367 -8.2066 0.5982 5.98036 -5.09091 4.73621 -2.1923 -43.463 -0.4931 0.480792 16.4168 -1.03287 -0.7333 -45.8593 -2.6451 -2.64103 19.0635 1.10369 
